# xmcd
#
# Track frame offsets: 
#        150
#        10204
#        18295
#        26287
#        38935
#        50445
#        59798
#        72311
#        84235
#        95006
#        105536
#        116688
#        128327
#        139730
#        151579
#        160559
#        169969
#        180494
#        190347
#        201007
#
# Disc length: 2835 seconds
#
# Revision: 2
# Processed by: cddbd v1.5.2PL0 Copyright (c) Steve Scherf et al.
# Submitted via: ExactAudioCopy v1.1
#
DISCID=fc0b1114
DTITLE=Various Artist - Rhythm and Blues Goes Rock 'n' Roll - CD11
DYEAR=2002
DGENRE=Blues
TTITLE0=Cry Baby Curtis - I Wanna (mono)
TTITLE1=Walter Vaughn - Down On My Knees (mono)
TTITLE2=Charles Sheffield - It's Your Voodoo Working (mono)
TTITLE3=Charles Walker - You Know It Ain't Right (mono)
TTITLE4=Boogaloo and His Gallant Crew - Talk About A Party (mono)
TTITLE5=Garland The Great - Hello Miss Sims (mono)
TTITLE6=Kansas City Jimmy - Saturday Night (mono)
TTITLE7=Junior Tamplin - My Baby Is A Boxer (mono)
TTITLE8=Danny 'Run Joe' Taylor - You Look Bad (mono)
TTITLE9=Piney Brown - How About Rockin' With Me (mono)
TTITLE10=Bumps Myers and His Frantic Five - I'm Clappin' And Shoutin' (m
TTITLE10=ono)
TTITLE11=Kansas City Jimmy - Cheating Woman (mono)
TTITLE12=Junior Ryder (Morris Riden) with Johnny Otis Orchestra - You 
TTITLE12=Better Stop (mono)
TTITLE13=Piney Brown - That's Right Baby (mono)
TTITLE14=Floyd Turnham Orchetra featuring Cledus Harrison - Bashful An
TTITLE14=d Blue (mono)
TTITLE15=Al Savage with Joe Morris Orchestra - Be Seein' You In My Dre
TTITLE15=ams (mono)
TTITLE16=Rufus Thomas - Decorate The Counter (mono)
TTITLE17=Joe Fritz - They Were Right (mono)
TTITLE18=The Freddie Kohlman Orchestra - Hole In The Ground (mono)
TTITLE19=Mr. Google Eyes with Johnny Otis Orchestra - Oh What A Fool (
TTITLE19=mono)
EXTD=
EXTT0=
EXTT1=
EXTT2=
EXTT3=
EXTT4=
EXTT5=
EXTT6=
EXTT7=
EXTT8=
EXTT9=
EXTT10=
EXTT11=
EXTT12=
EXTT13=
EXTT14=
EXTT15=
EXTT16=
EXTT17=
EXTT18=
EXTT19=
PLAYORDER=
